PathFileType	4	(X/Y/Z)	Kaydara	
DataRate	CameraRate	NumFrames	NumMarkers	Units	OrigDataRate	OrigDataStartFrame	OrigNumFrames	
240.00	240.00	4	72	mm	240.00	1	359	
Frame#	Time	Hips			RightUpLeg			RightLeg			RightFoot			RightFoot_End			LeftUpLeg			LeftLeg			LeftFoot			LeftFoot_End			Spine			Spine1			Spine2			Spine3			Neck			Head			Head_End			RightShoulder			RightArm			RightForeArm			RightHand			RightHandThumb1			RightHandThumb2			RightHandThumb3			RightHandThumb3_End			RightInHandIndex			RightHandIndex1			RightHandIndex2			RightHandIndex3			RightHandIndex3_End			RightInHandMiddle			RightHandMiddle1			RightHandMiddle2			RightHandMiddle3			RightHandMiddle3_End			RightInHandRing			RightHandRing1			RightHandRing2			RightHandRing3			RightHandRing3_End			RightInHandPinky			RightHandPinky1			RightHandPinky2			RightHandPinky3			RightHandPinky3_End			LeftShoulder			LeftArm			LeftForeArm			LeftHand			LeftHandThumb1			LeftHandThumb2			LeftHandThumb3			LeftHandThumb3_End			LeftInHandIndex			LeftHandIndex1			LeftHandIndex2			LeftHandIndex3			LeftHandIndex3_End			LeftInHandMiddle			LeftHandMiddle1			LeftHandMiddle2			LeftHandMiddle3			LeftHandMiddle3_End			LeftInHandRing			LeftHandRing1			LeftHandRing2			LeftHandRing3			LeftHandRing3_End			LeftInHandPinky			LeftHandPinky1			LeftHandPinky2			LeftHandPinky3			LeftHandPinky3_End			
		X1	Y1	Z1	X2	Y2	Z2	X3	Y3	Z3	X4	Y4	Z4	X5	Y5	Z5	X6	Y6	Z6	X7	Y7	Z7	X8	Y8	Z8	X9	Y9	Z9	X10	Y10	Z10	X11	Y11	Z11	X12	Y12	Z12	X13	Y13	Z13	X14	Y14	Z14	X15	Y15	Z15	X16	Y16	Z16	X17	Y17	Z17	X18	Y18	Z18	X19	Y19	Z19	X20	Y20	Z20	X21	Y21	Z21	X22	Y22	Z22	X23	Y23	Z23	X24	Y24	Z24	X25	Y25	Z25	X26	Y26	Z26	X27	Y27	Z27	X28	Y28	Z28	X29	Y29	Z29	X30	Y30	Z30	X31	Y31	Z31	X32	Y32	Z32	X33	Y33	Z33	X34	Y34	Z34	X35	Y35	Z35	X36	Y36	Z36	X37	Y37	Z37	X38	Y38	Z38	X39	Y39	Z39	X40	Y40	Z40	X41	Y41	Z41	X42	Y42	Z42	X43	Y43	Z43	X44	Y44	Z44	X45	Y45	Z45	X46	Y46	Z46	X47	Y47	Z47	X48	Y48	Z48	X49	Y49	Z49	X50	Y50	Z50	X51	Y51	Z51	X52	Y52	Z52	X53	Y53	Z53	X54	Y54	Z54	X55	Y55	Z55	X56	Y56	Z56	X57	Y57	Z57	X58	Y58	Z58	X59	Y59	Z59	X60	Y60	Z60	X61	Y61	Z61	X62	Y62	Z62	X63	Y63	Z63	X64	Y64	Z64	X65	Y65	Z65	X66	Y66	Z66	X67	Y67	Z67	X68	Y68	Z68	X69	Y69	Z69	X70	Y70	Z70	X71	Y71	Z71	X72	Y72	Z72	

1	0.0	5198.941	914.58397	126.699	5255.147222084154	897.0270578346402	53.86923275786304	5160.561341438664	499.98346781645284	-40.593598245396706	5142.969784152184	108.39790297294397	-115.68661310677476	4991.089494974672	31.410887613374676	-28.830967396821862	5157.178754825928	906.1397300827839	211.1191506159587	5066.449461601595	504.36659197529224	287.05533010197416	4994.660855666403	80.02392941497995	378.77036486994655	4872.900537148255	-2.332229299260864	256.5779876216754	5131.644654707349	1031.3091625072268	78.24401543550185	5068.444510932105	1086.215365448884	28.874594460840925	4999.577494197713	1136.3628804356395	-25.767580257620196	4929.770997300176	1173.1975301793718	-82.38282454669432	4854.133582484234	1213.0801129362121	-141.2016375205668	4783.721565989778	1249.9041214851532	-192.14336461875575	4645.773319692281	1329.9278456543925	-197.42661280461044	4898.360215612636	1198.6512569456077	-146.41141793146232	4948.305696491316	1175.780212555182	-261.24874962167365	4999.242673294838	918.4400000556612	-271.0181517850346	5001.354670314965	763.5194831085661	-372.0787709530151	4992.823728741163	757.61493727525	-392.9897977510552	4967.7755611838675	752.7647158206031	-401.47462058275823	4951.78395307783	748.0408172441694	-405.7642679678082	4939.694541034575	742.9510724175423	-407.955195677728	4999.304735293179	751.5479326230123	-390.17835007679537	4992.639442083289	731.2884016045014	-407.18097521016443	4977.003390535993	720.9262282387047	-413.27456379836235	4960.580290423313	719.2036906295108	-413.9126634161267	4942.466075580941	720.9614783506811	-412.31584580173035	5002.963038285836	748.7692345719364	-384.90988370960645	4998.4438243847035	727.5046325810918	-398.64565265453234	4981.872374563545	715.901178494357	-404.53748991549173	4962.29391031862	713.6808500768464	-404.9438294644789	4942.58810870872	715.5350881646889	-403.01990959510925	5005.837553284324	747.2723005014533	-380.8049001321832	5004.633328486424	726.7669865715346	-389.7008787757541	4990.696816736372	716.3846397276567	-394.03978993495934	4972.081187494779	714.1002504281747	-394.0087766678966	4953.680404195516	715.7760824251668	-391.99937511683885	5008.39967076202	746.5339106403604	-375.1788030246481	5009.274652626573	727.0944320686398	-380.04652349407434	4998.910507002591	718.4511724409319	-382.23926369252194	4985.717098304538	716.6255616086968	-381.59664258978444	4969.638510484837	718.0183542874532	-379.4598208600019	4860.123975762606	1201.2532740300192	-95.75185064389827	4817.700218847365	1147.4953972330952	12.764218682606108	4945.612376890412	966.5026186423403	-128.56263280425864	5045.340901555993	830.1657041828737	-294.5244714339192	5059.036018839301	829.9700917092581	-318.65069188530015	5094.372574843021	821.9599418283996	-335.03754734105905	5119.950755147281	814.279890213363	-345.45403025747447	5142.103814109883	806.0793401298363	-353.2863229146395	5062.1490340323435	822.4603836209819	-318.1729422023005	5098.450671608881	802.7041659478966	-346.82592723876087	5132.366149676222	788.7283673723679	-362.08269928264167	5154.5942381404275	783.1598916642914	-367.58479103258526	5173.763305657467	780.6555865845171	-369.4521990212013	5063.934517110106	817.4206897521223	-314.245937678179	5100.305344095888	795.425161051702	-340.07041524929144	5137.442526309545	779.5736002232294	-356.10163560711254	5164.321633263451	772.5669634642225	-362.4436396214491	5185.3260736072025	769.6865646069728	-364.3429844992811	5064.195300042726	814.3489297494245	-310.787075578742	5096.799819789616	791.9250907440309	-331.06518260298725	5129.24372030545	777.5291869237888	-344.3662514640413	5155.2105778832	770.4629167269984	-350.1268506795328	5174.978920070793	767.6087558050642	-351.7436399955074	5064.02948171898	811.5019360491115	-305.60219723152	5093.594331132813	789.1218328029488	-321.170808724436	5119.549569241322	776.7877358348867	-330.68494980960764	5138.477989060053	771.243493369403	-334.3368159647149	5155.982664654432	768.4906742651353	-335.4525309701914
2	0.004	5198.941	914.58397	126.699	5255.148048723494	897.0549812440987	53.86210688435527	5160.548292231968	500.02535062726207	-40.64244920442979	5142.945488235128	108.44400290084813	-115.75325317418293	4991.066118703999	31.46162611488936	-28.891957466342177	5157.178168575179	906.107632587962	211.11671687618937	5066.435032091713	504.33257279888437	287.0241377502599	4994.676249845228	79.98613863623216	378.74586305675444	4872.9175037296645	-2.3699030466171673	256.5518588106484	5131.6435471781815	1031.326526623682	78.28696260133992	5068.4780477603135	1086.304453108724	28.952431931835168	4999.642020768991	1136.5221982783219	-25.664865827969226	4929.852138606948	1173.3972089200643	-82.27429517978538	4854.231927050477	1213.3214614327821	-141.0870160359847	4783.833136379163	1250.17877369678	-192.0229931634293	4645.838906780508	1330.137269269089	-197.277024593026	4898.496291924407	1198.9560870593596	-146.30300291763461	4948.736999466378	1176.4929491580217	-261.3550243439659	5000.3231730333855	918.762964510085	-271.9329595655447	5002.214901627717	764.1523045833746	-375.204771372394	4994.006958207071	758.4773267771711	-396.51611132330487	4968.934054329967	753.6897122868629	-405.51676454392043	4952.877428854557	748.9849938849935	-410.1576760703754	4940.692930613055	743.8903483840076	-412.634627616278	5000.370663960386	752.356386453072	-393.705469168024	4993.7368658263285	732.2203899780335	-411.32359562589005	4977.992489626167	721.8772069345576	-417.88497109682595	4961.467040251161	720.1400174307713	-418.7942761227073	4943.244499665387	721.8678309473223	-417.408702683161	5003.891696136936	749.5037882346571	-388.39580462191043	4999.328988901738	728.3197245533668	-402.7096197266061	4982.620957891086	716.7267572986701	-409.10452229765167	4962.910194093428	714.4838402189586	-409.8345181819949	4943.081577341217	716.3028933286072	-408.14001518752923	5006.669441926539	747.952036492711	-384.2456776963845	5005.345209271563	727.4729095362502	-393.61954731819003	4991.270926559957	717.0891085565243	-398.3884783961669	4972.5177391231355	714.777304473398	-398.66516793162083	4953.996765777626	716.4173874482091	-396.8693484844646	5009.111108854674	747.142593394574	-378.5523201412715	5009.80518342236	727.685198350976	-383.8159841581918	4999.302016710856	719.024127448175	-386.33779807706753	4985.994389535905	717.1704674520566	-385.9122297582353	4969.801343248154	718.5269579761982	-383.9603559006831	4860.171243034976	1201.4012085164452	-95.63382715064112	4817.533116807065	1147.1977093924759	12.817219616829139	4945.893926997243	966.5828547814909	-129.52975098293547	5045.54340307166	830.5848168648059	-296.5269339882661	5059.687157891967	830.624505505517	-320.7479602238778	5095.257929290774	822.6747316206449	-336.96566141575113	5120.945376872837	815.014497385277	-347.26953945092373	5143.143468171798	806.8114526468347	-355.0124020454906	5062.659170940335	823.0709507234828	-320.32818651332894	5099.184319750821	803.4631766169913	-349.1011464538865	5133.197441239121	789.5145779799328	-364.2776511325428	5155.480968147586	783.92782812081	-369.62641279578827	5174.69236946109	781.384664590004	-371.2971439033902	5064.287685310753	817.9620155065196	-316.4033502430755	5100.791630624642	796.0738432007431	-342.3460672216042	5138.013852288892	780.2422502866796	-358.28939233419754	5164.949521989624	773.2089055019935	-364.446261296431	5185.9952656363985	770.2837224604085	-366.1303342037299	5064.432146694198	814.8382054962366	-312.9446790014228	5097.055811834093	792.4673182396251	-333.33395195553777	5129.551635808489	778.0787143993216	-346.55789130884915	5155.561264710859	770.981316352624	-352.13963671669853	5175.362856258924	768.0825042938708	-353.55388507109643	5064.123576906685	811.9217452076496	-307.74299044492903	5093.618993961409	789.5496356195611	-323.40901149222873	5119.581094611752	777.2053852731879	-332.8600817246453	5138.523918741373	771.6306987637381	-336.3808581853505	5156.048383271911	768.8338720042018	-337.31679060598543
3	0.008	5198.941	914.58397	126.699	5255.147860181318	897.0824008862628	53.85444295445068	5160.534823716429	500.0668433217699	-40.69284319148377	5142.921502021196	108.48981976073667	-115.82203190824929	4991.04310121291	31.512061550994897	-28.955018516736168	5157.178618751878	906.0760229592818	211.11475386694073	5066.421924237432	504.2988453619113	286.9926847497671	4994.6925735674395	79.94840008551843	378.71947777121426	4872.935506257378	-2.4076481716658398	256.52382523956635	5131.642390286	1031.3439858262282	78.33023850747466	5068.511401429829	1086.393540014839	29.030672852682976	4999.70626653389	1136.6813616874767	-25.56175682689734	4929.932990095822	1173.5964403890714	-82.16556270176224	4854.329981753426	1213.5620616381898	-140.9724062025537	4783.944422051269	1250.4524144431182	-191.90283348779022	4645.904124731344	1330.3454804619462	-197.1285603270446	4898.632234020628	1199.260355077278	-146.19470131490198	4949.168711010098	1177.2048380883512	-261.4621190304863	5001.4087414074065	919.0849903380264	-272.8472997665321	5003.077883909759	764.7755731394166	-378.34976696008994	4995.198541419378	759.3326013328526	-400.0666207734086	4970.103562194989	754.6069261054574	-409.58990517675045	4953.983050502065	749.9203095972922	-414.5867033973782	4941.703791446445	744.8193398494302	-417.3534352846791	5001.443017051633	753.1558931491952	-397.2567445677679	4994.843023929464	733.1414644944069	-415.49831457640266	4978.991158041909	722.8151412779276	-422.5335903444666	4962.363863309509	721.0622093647152	-423.71769955120305	4944.033403815882	722.7593039054578	-422.5462127783991	5004.824697707673	750.2277589429913	-391.90532451892625	5000.219624948155	729.1214306920531	-406.80463076808235	4983.3756408574245	717.5364150605537	-413.7091710342733	4963.533049646807	715.2694926802952	-414.76711773986483	4943.581996883124	717.0524968105053	-413.30511882655617	5007.504148909615	748.6200873450198	-387.7094527068202	5006.059605486535	728.1636884066145	-397.567348351358	4991.847808203069	717.7760129079566	-402.7719154415453	4972.957363409195	715.4353156953514	-403.3603904491545	4954.316483246969	717.0387842505934	-401.7810275662681	5009.82351204746	747.7383513882056	-381.94795160586636	5010.335271748393	728.2591136704465	-387.6126271690549	4999.692836441845	719.5779797072751	-390.46780985931457	4986.270991181654	717.695040520296	-390.26217447501216	4969.963611260522	719.0143749754156	-388.49773852726435	4860.218059887845	1201.5484108034793	-95.5155630830832	4817.364803445633	1146.898586093225	12.87048573026793	4946.1758703566	966.663965368078	-130.50163977750006	5045.736939627513	830.9996529651579	-298.5422059382762	5060.334300179174	831.2769479353085	-322.8583098246581	5096.139167636652	823.3865516386835	-338.90360950011853	5121.934949960479	815.7449591730036	-349.09272137016	5144.176569516112	807.5380288219498	-356.74443776582825	5063.163029134052	823.6782444012844	-322.49729754551925	5099.911313328298	804.2177633920955	-351.39047977832195	5134.020175725749	790.2944516626366	-366.4847436566376	5156.357778661506	784.6881082493318	-371.6776698927165	5175.610264940492	782.1049064589822	-373.1487880910661	5064.632199569587	818.498748612075	-318.57479119613635	5101.267612324153	796.7160973181177	-344.63607693318045	5138.572483181691	780.9022130947476	-360.4893712406706	5165.562921133019	773.8404860648977	-366.45809111132684	5186.648528327651	770.8691878549407	-367.9236836621852	5064.658681930787	815.321993847328	-315.11644120677954	5097.298606417531	793.0016599555253	-335.61735424691875	5129.843951790791	778.6182142314273	-348.76232020721056	5155.894451834026	771.487981695818	-354.1623138025389	5175.727858806386	768.5432235726527	-355.3710089003209	5064.205374314269	812.3350066140418	-309.8979083947469	5093.627524263058	789.9680634210198	-325.6618284429734	5119.594079268107	777.6116855131355	-335.0483763368847	5138.549687237003	772.0051848143343	-338.4359613966491	5156.092535528878	769.1631311851606	-339.189449796284
4	0.013	5198.941	914.58397	126.699	5255.146666453906	897.1093165885003	53.84624528756235	5160.520967577076	500.10793883180156	-40.74476952017882	5142.897831436151	108.53534533243466	-115.89293117920508	4991.020448218015	31.56218584505117	-29.020132659115887	5157.180096352007	906.0449031187358	211.11326002875467	5066.410134495377	504.2654114780034	286.96097628012564	4994.709814304417	79.91071747063035	378.69121940826085	4872.954530636931	-2.4454604108429274	256.4938984591049	5131.641179153341	1031.3615322867395	78.37383062019467	5068.54454437267	1086.4825773302364	29.10928860628001	4999.77018517559	1136.8402830368955	-25.45829322014914	4930.013497401766	1173.795116696352	-82.0566703793344	4854.427683751317	1213.8017842368615	-140.8578549348414	4784.0553532970225	1250.7248966665088	-191.78293588990027	4645.968918407914	1330.5523525505114	-196.9812822871445	4898.767967742106	1199.5639060632225	-146.08656207840997	4949.600650911726	1177.9155197410391	-261.5700094913851	5002.498818071868	919.4058159017384	-273.7607705212167	5003.9432301443685	765.3887870233252	-381.5127654309904	4996.398019168044	760.1801867050151	-403.64024337031583	4971.283648494088	755.5157518209895	-413.692837368361	4955.100410458191	750.8461418804362	-419.0500628478366	4942.726750831376	745.7374141200908	-422.110266002702	5002.5213679786175	753.9458847867152	-400.83109964134144	4995.957504746228	734.050990268507	-419.7039264668434	4979.999029188233	723.7393704479446	-427.2191113286251	4963.270428481421	721.9696021989516	-428.68155765227687	4944.832491319206	723.6352387441196	-427.7269450081101	5005.761652235613	750.940594855155	-395.4373793563319	5001.115375703668	729.9091425375531	-410.9295027651185	4984.136120524406	718.3295173844972	-418.35014101368733	4964.162219109569	716.0371700844607	-419.74025458583765	4944.089148210642	717.7832680788321	-418.51378722805435	5008.341308135317	749.2759140953134	-391.19517345165946	5006.776202085542	728.8387440956374	-401.5431346771628	4992.427198359545	718.4447535978536	-407.1888584605124	4973.399843055577	716.0736833668572	-408.09312716514535	4954.639376938642	717.6396791724452	-406.7330397208332	5010.536544327622	748.3206639577307	-385.3646625020814	5010.864646078421	728.8156311761219	-391.43534083541897	5000.082743330453	720.1121703646355	-394.6281149369589	4986.5467174332325	718.1987228129368	-394.64524026853996	4970.125164062359	719.4800546838021	-393.0706841392001	4860.264381123731	1201.6947925002532	-95.3971012512662	4817.195318987141	1146.5980828188463	12.924036347587094	4946.458063602293	966.745804485416	-131.47803638595124	5045.9212924184185	831.4099140151002	-300.5697468555711	5060.977079442068	831.9270152383402	-324.9811748999422	5097.015828946714	824.0949468677553	-340.85086917368824	5122.918960736791	816.4707920224976	-350.9230807865577	5145.202571788471	808.2585674292999	-358.48195494126435	5063.660272750611	824.2818719861294	-324.67968780760236	5100.63120109042	804.9674373713015	-353.69329383776164	5134.833839566711	791.0674586888597	-368.70335743245175	5157.224125446132	785.4401929219907	-373.737982770974	5176.5164279250985	782.8157760704079	-375.0066060753624	5064.96776477546	819.0305204508118	-320.7596686393548	5101.732903574696	797.3514739238531	-346.9398053363719	5139.117971140118	781.5529981321481	-362.7009481277714	5166.161348618509	774.4612049896834	-368.4785527891749	5187.285359140612	771.4424647381952	-369.7225156434772	5064.874642257603	815.7999453941173	-317.3017678596708	5097.527886027572	793.5277099940331	-337.91474932352264	5130.120302547131	779.1472484820762	-350.9789106439549	5156.209743742933	771.9824674910716	-356.19430048504876	5176.07351448239	768.9904731788182	-357.19448547274305	5064.2746511691075	812.7413976610607	-312.06635916306686	5093.619674387987	790.3767574824094	-327.9286254498665	5119.588246637566	778.0062582340981	-337.24920936933	5138.555000911336	772.366570787827	-340.501534789459	5156.1148147832255	769.478077016563	-341.0699667687762
